<?xml version="1.0" encoding="utf-8"?>
<!-- Generator: Adobe Illustrator 15.1.0, SVG Export Plug-In . SVG Version: 6.00 Build 0)  -->
<!DOCTYPE svg PUBLIC "-//W3C//DTD SVG 1.1//EN" "http://www.w3.org/Graphics/SVG/1.1/DTD/svg11.dtd">
<svg version="1.1" id="Layer_1" xmlns="http://www.w3.org/2000/svg" xmlns:xlink="http://www.w3.org/1999/xlink" x="0px" y="0px"
	 width="70px" height="70px" viewBox="0 0 70 70" enable-background="new 0 0 70 70" xml:space="preserve">
<g>
	<path fill="#868686" d="M24.483,40.624H7.771c-1.977,0-3.58,1.642-3.58,3.666v17.116c0,2.023,1.604,3.664,3.58,3.664h16.712
		c1.977,0,3.579-1.641,3.579-3.664V44.289C28.062,42.266,26.458,40.624,24.483,40.624z M23.478,55.482
		c0,2.699-2.137,4.889-4.772,4.889h-5.138c-2.636,0-4.773-2.188-4.773-4.889v-5.359c0-2.7,2.138-4.889,4.773-4.889h2.407
		c2.636,0,4.773,2.188,4.773,4.889v0.011c0.035,0.507,0.449,0.907,0.953,0.907l0.018-0.001h0.805c0.528,0,0.955,0.438,0.955,0.978
		L23.478,55.482z"/>
	<path fill="#868686" d="M13.449,51.077h2.702c0.507,0,0.918-0.42,0.918-0.938c0-0.52-0.411-0.939-0.918-0.939h-2.702
		c-0.506,0-0.916,0.42-0.916,0.939C12.533,50.657,12.943,51.077,13.449,51.077z"/>
	<path fill="#868686" d="M18.87,54.701h-5.426c-0.479,0-0.868,0.396-0.868,0.889c0,0.49,0.389,0.889,0.868,0.889h5.426
		c0.479,0,0.867-0.398,0.867-0.889C19.737,55.098,19.347,54.701,18.87,54.701z"/>
</g>
<g>
	<g>
		<path fill="#868686" d="M26.604,3.566H6.338c-1.02,0-1.846,0.826-1.846,1.846v20.343c0,1.02,0.826,1.77,1.846,1.77h20.267
			c1.021,0,1.847-0.75,1.847-1.77V5.413C28.45,4.393,27.624,3.566,26.604,3.566z M17.076,11.504
			c-0.585-0.342-1.05-0.612-1.629-0.612c-0.57,0-1.062,0.144-1.31,0.384c-0.248,0.238-0.372,0.7-0.372,1.381v1.008h3.052
			l-0.662,2.805h-2.39v9.316h-3.83v-9.316H8.142v-2.805h1.793v-1.07c0-1.127,0.133-1.803,0.399-2.358s0.782-1.173,1.497-1.522
			s1.775-0.523,2.869-0.523c1.121,0,1.999,0.372,3.074,0.675L17.076,11.504z"/>
	</g>
</g>
<path fill="#868686" d="M40.174,20.93c0,0,3.297,1.518,4.668,1.518c0,0,2.61,0.701,4.332-1.551c0,0,0.426-0.617-0.147-0.915
	c0,0-5.622-1.649-5.224-2.621c0,0-0.024-0.549,0.698-0.425c0,0,0.813-0.808,0.414-1.057c0,0-0.622-0.811-0.124-0.86
	c0,0,1.271,0.344,1.743,0.469c0,0,0.324-0.116,0.024-0.341c-0.299-0.225-0.83-0.663-0.73-0.763c0,0,0.208-0.489,1.005-0.141
	c0,0,0.249-0.05,0.024-0.299c0,0-0.574-0.398-0.252-0.723c0,0,0.914-0.658,3.23,2.156c0,0,0.424,0.572,0.475,0.024
	c0,0,1.679-7.155,4.394-7.628c0,0,0.873,0.174,1.047-0.1c0,0,0.756-0.299,1.004-0.05c0,0,0.25,0.374,0.549,0.15
	c0,0,1.071-0.424,0.746,0.273c0,0-1.104,0.988-1.478,1.014c-0.373,0.024-0.298,0.373,0.024,0.424c0,0,4.56,0.401,4.56,3.738
	c0,0,0.262,0.794,1.108-0.029c0,0,1.281-0.814,1.605-0.854c0,0,0.35-0.225,0.3,0.299c0,0-0.922,1.597-1.868,2.044
	c0,0-0.572,0.722,0.25,0.572c0,0,0.801-0.165,1.172-0.39c0,0,0.974-0.472,0.523,0.375c0,0-2.046,1.327-2.492,1.327
	c0,0-0.3,0.073-0.3,0.349c0,0-0.274,8.714-11.684,8.714c0,0-5.715,0.332-9.45-4.054C40.324,21.578,39.602,20.805,40.174,20.93z"/>
<g>
	<g>
		<path fill="#868686" d="M61.322,41.216H43.004c-1.519,0-2.747,1.23-2.747,2.748v18.317c0,1.52,1.229,2.748,2.747,2.748h18.318
			c1.52,0,2.748-1.229,2.748-2.748V43.964C64.07,42.446,62.842,41.216,61.322,41.216z M45.337,62.34
			c-1.303,0-2.361-1.058-2.361-2.363c0-1.303,1.059-2.359,2.361-2.359c1.305,0,2.362,1.059,2.362,2.359
			C47.699,61.282,46.642,62.34,45.337,62.34z M53.093,62.309c-0.182-5.137-4.402-9.245-9.584-9.245
			c-0.169,0-0.338,0.004-0.506,0.013l0.029-2.709c0.158-0.006,0.318-0.008,0.477-0.008c6.666,0,12.095,5.305,12.29,11.924
			L53.093,62.309z M58.6,62.252c-0.211-8.199-6.842-14.635-15.09-14.635l-0.477,0.038V44.88h0.544
			c9.667,0,17.501,7.805,17.713,17.421L58.6,62.252z"/>
	</g>
</g>
</svg>
